inDegrees=no
num_controls=7
num_derivatives=13
num_iterations=137
num_multipliers=7
num_parameters=0
num_slacks=7
num_states=26
objective=0.516807
objective_accelerations=0.039316
objective_balance=0.002180
objective_effort=0.043512
objective_height=0.420155
objective_ligament=0.011645
solver_duration=1824.858410
status=Solve_Succeeded
success=true
DataType=double
version=3
OpenSimVersion=4.5
endheader
time	/jointset/ground_pelvis/pelvis_tilt/value	/jointset/ground_pelvis/pelvis_tx/value	/jointset/ground_pelvis/pelvis_ty/value	/jointset/hip_l/hip_flexion_l/value	/jointset/hip_l/hip_adduction_l/value	/jointset/hip_l/hip_rotation_l/value	/jointset/back/lumbar_extension/value	/jointset/patellofemoral_l/patellar_flexion_l/value	/jointset/knee_l/knee_flexion_l/value	/jointset/knee_l/knee_adduction_l/value	/jointset/knee_l/knee_rotation_l/value	/jointset/ankle_l/ankle_angle_l/value	/jointset/subtalar_l/subtalar_angle_l/value	/jointset/ground_pelvis/pelvis_tilt/speed	/jointset/ground_pelvis/pelvis_tx/speed	/jointset/ground_pelvis/pelvis_ty/speed	/jointset/hip_l/hip_flexion_l/speed	/jointset/hip_l/hip_adduction_l/speed	/jointset/hip_l/hip_rotation_l/speed	/jointset/back/lumbar_extension/speed	/jointset/patellofemoral_l/patellar_flexion_l/speed	/jointset/knee_l/knee_flexion_l/speed	/jointset/knee_l/knee_adduction_l/speed	/jointset/knee_l/knee_rotation_l/speed	/jointset/ankle_l/ankle_angle_l/speed	/jointset/subtalar_l/subtalar_angle_l/speed	/forceset/tau_hip_flexion_l	/forceset/tau_hip_adduction_l	/forceset/tau_hip_rotation_l	/forceset/tau_knee_flexion_l	/forceset/tau_ankle_angle_l	/forceset/tau_subtalar_angle_l	/forceset/tau_lumbar_extension	lambda_cid13_p0	lambda_cid13_p1	lambda_cid13_p2	lambda_cid13_p3	lambda_cid13_p4	lambda_cid13_p5	lambda_cid14_p0	/jointset/ground_pelvis/pelvis_tilt/accel	/jointset/ground_pelvis/pelvis_tx/accel	/jointset/ground_pelvis/pelvis_ty/accel	/jointset/hip_l/hip_flexion_l/accel	/jointset/hip_l/hip_adduction_l/accel	/jointset/hip_l/hip_rotation_l/accel	/jointset/back/lumbar_extension/accel	/jointset/patellofemoral_l/patellar_flexion_l/accel	/jointset/knee_l/knee_flexion_l/accel	/jointset/knee_l/knee_adduction_l/accel	/jointset/knee_l/knee_rotation_l/accel	/jointset/ankle_l/ankle_angle_l/accel	/jointset/subtalar_l/subtalar_angle_l/accel	gamma_cid13_p0	gamma_cid13_p1	gamma_cid13_p2	gamma_cid13_p3	gamma_cid13_p4	gamma_cid13_p5	gamma_cid14_p0
0	-0.03682341943687256	0.05667772089934334	0.9203415731905129	0.3085816938045678	-0.2956402178068235	-0.3016042673418724	-0.3879492264334186	0.2499269421184918	0.2499269421184919	-0.1745329251994329	-0.174529740273477	-0.0008036623358878681	0.0004378298993898986	0	0	0	0	0	0	0	0	0	0	0	0	0	0.05769955635045387	-0.03070324284772705	-0.0173040520697254	-0.220954265433132	0.15458834166774	-0.01436553264668408	0.01395917836323999	5.480569229384388	2.356989250376602	2.507954741627604	21.09571685903935	-631.2577606645136	-69.55513310811385	-23.19687961153478	-1.275206114146116	-2.116951222254689	-0.8224440357514975	8.556628423657248	-0.521496518866514	2.591878019696745	-6.709629192863521	7.37517190991379	7.375171909914108	1.279154812141443	-0.04290639412900841	0.552599153286181	-0.3813985293511954	1.317584516028062e-08	1.189968222112121e-07	-1.853779861940825e-09	-6.551136705567506e-09	8.665532053912755e-08	4.054792918821171e-08	1.160259147987859e-08
0.01	-0.03688411731655811	0.05657362725214601	0.9203012585632435	0.3089996393636136	-0.2956669313343127	-0.3014738515765241	-0.3882849895275742	0.2502888610952114	0.2502888610952148	-0.1744727508905326	-0.174529253751722	-0.0007767268677660669	0.0004178485708137647	-0.01213022564263064	-0.02066131256696132	-0.008038502169568688	0.08320732511479956	-0.005358293449904236	0.02598278835162704	-0.066867770659622	0.07211541177400881	0.07211541177400076	0.01190943980658078	8.359241008890636e-05	0.00545579749099603	-0.003987506625972898	0.05829686411979845	-0.04190944512885407	-0.01780398619523564	-0.2262621833886341	0.1612274675217316	-0.006035612868290873	0.01486522246418103	7.884950920281297	-1.522453634125731	2.944564072058716	17.64470060688744	-633.0357119866443	-77.82139434580206	-23.20097131028203	-1.180531969003598	-2.017110053274452	-0.7908724838516504	8.145514418359173	-0.545352163077805	2.586430474456529	-6.632623776780102	7.089465955083544	7.089465955082108	1.127904410770872	0.03193116605665663	0.5523795410975114	-0.4061316947234557	-9.630862312171171e-09	9.475914477199237e-08	6.672099461161529e-08	9.713191479090683e-09	3.209897753866824e-09	-4.299249659224184e-09	6.235924161132089e-10
0.02	-0.03706583768860679	0.05626764272340755	0.9201812950790201	0.3102382041464016	-0.2957476990773059	-0.3010866176813475	-0.3892808848831797	0.2513638822184626	0.2513638822184645	-0.1742972643386063	-0.1745283434843649	-0.000693171525916079	0.0003582511828772764	-0.02420449847254333	-0.04037817630822695	-0.01592977139082135	0.1641238447483135	-0.01081084310082529	0.05136362596568839	-0.1320264522899863	0.1426204293055821	0.1426204293055633	0.02306151344734067	8.474911933017981e-05	0.01132397474563968	-0.007923211872070594	0.05889417188914985	-0.05311564740998181	-0.0183039203207751	-0.2315701013441281	0.1678665933757246	0.002294306910102442	0.01577126656512647	10.34679390212492	-5.410004842946086	3.380235160982201	14.14660363680908	-633.9265366533392	-86.01387075256639	-23.21309776042335	-1.26401555160252	-1.928061457115552	-0.792997446088291	8.098467327400122	-0.5403477590698768	2.471487872183608	-6.367811387011971	7.053093061426694	7.053093061426465	1.127681578977266	-0.05939353429853529	0.6350751060157021	-0.371038253376156	-3.243756978462296e-08	7.05214673327726e-08	1.352957690851714e-07	2.597751966374887e-08	-8.02355250313939e-08	-4.914642850666008e-08	-1.035540664765217e-08
0.03	-0.03736727867966608	0.05576870804771721	0.9199831051142731	0.3122739528321514	-0.2958828161241642	-0.3004496488871504	-0.3909173007515701	0.2531350380471778	0.253135038047177	-0.1740131320775474	-0.174528275765715	-0.0005498177126332663	0.000259908858569809	-0.03598408538505659	-0.0593020894030955	-0.02368621592661881	0.2425774915659821	-0.01616549342564219	0.07590557153110815	-0.1947382228503862	0.2112534649836508	0.2112534649836184	0.03371913486774213	-5.079590133620927e-05	0.01732630664275905	-0.01170252838377691	0.04985625023209003	-0.04555593262913992	-0.01703034804081621	-0.2220965890593142	0.1578700725171427	0.001375675965188166	0.02331788461683309	7.039035570976188	-4.545270905431125	3.371893801519932	15.38494730016948	-635.6178775363461	-83.09602354766663	-23.23289174049372	-1.119991265844648	-1.858550560444602	-0.763683496786538	7.651548164442718	-0.525988535946927	2.42684522121032	-6.145085109889964	6.714820218392061	6.714820218390253	1.027955628746473	0.01244839007953482	0.579741045834538	-0.3749964204565779	-4.575598699265754e-08	6.807029594320386e-08	1.66790293956589e-07	4.164897646141837e-08	-1.484181537477778e-07	-6.753368868599577e-08	-1.335097042425527e-08
